<?xml version="1.0" standalone="no"?>
<!DOCTYPE svg PUBLIC "-//W3C//DTD SVG 20010904//EN"
 "http://www.w3.org/TR/2001/REC-SVG-20010904/DTD/svg10.dtd">
<svg version="1.0" xmlns="http://www.w3.org/2000/svg"
 width="640.000000pt" height="1280.000000pt" viewBox="0 0 640.000000 1280.000000"
 preserveAspectRatio="xMidYMid meet">
<metadata>
Created by potrace 1.15, written by Peter Selinger 2001-2017
</metadata>
<g transform="translate(0.000000,1280.000000) scale(0.100000,-0.100000)"
fill="#000000" stroke="none">
<path d="M1552 12698 c-92 -297 -103 -576 -36 -877 98 -435 372 -912 828
-1441 130 -150 206 -231 408 -436 l180 -182 -199 -134 c-669 -454 -1040 -744
-1358 -1063 -299 -298 -482 -551 -615 -845 -75 -168 -130 -355 -155 -535 -19
-128 -19 -409 -1 -545 52 -389 196 -784 442 -1212 107 -187 223 -335 414 -531
299 -307 614 -570 1427 -1192 144 -110 262 -203 263 -207 0 -4 -39 -37 -88
-75 -377 -292 -833 -669 -1087 -897 -265 -238 -622 -607 -811 -836 -462 -560
-721 -1103 -779 -1632 l-6 -58 144 0 144 0 16 118 c9 66 29 168 45 228 l28
109 254 -2 c260 -3 718 -22 1185 -49 274 -15 1269 -77 1515 -94 542 -36 1356
-77 1720 -85 146 -3 275 -8 288 -11 21 -4 22 -9 22 -109 l0 -105 129 0 128 0
7 37 c11 72 6 332 -10 455 -32 249 -104 477 -234 743 -309 632 -879 1247
-1920 2070 -124 97 -225 181 -225 186 0 4 82 71 183 149 538 413 836 663 1088
915 271 269 375 408 530 709 273 530 382 970 352 1421 -41 616 -373 1194
-1062 1848 -238 226 -342 320 -646 583 -432 373 -697 611 -689 618 2 1 56 38
119 81 383 262 674 478 905 673 498 421 830 817 1035 1237 192 394 243 651
184 940 -8 38 -17 85 -20 103 l-7 32 -143 0 c-91 0 -144 -4 -144 -10 0 -6 9
-43 20 -82 32 -115 42 -106 -127 -102 -82 2 -359 9 -618 14 -258 6 -623 15
-810 20 -556 16 -1146 31 -1543 39 -205 5 -375 10 -378 13 -2 3 4 28 15 57
l21 51 -148 0 -149 0 -31 -102z m488 -284 c52 -64 154 -174 227 -245 l132
-129 -77 0 -78 0 -44 46 c-25 25 -103 98 -174 162 -136 122 -236 234 -236 264
0 16 9 18 78 18 l77 0 95 -116z m350 77 c0 -32 6 -39 205 -265 182 -208 176
-186 48 -186 l-109 0 4 40 c4 39 3 40 -165 207 -93 93 -180 183 -192 201 l-22
32 115 0 116 0 0 -29z m258 19 c33 0 52 -4 52 -12 0 -21 202 -282 283 -365
l81 -83 -60 0 -59 1 -95 116 c-52 64 -141 168 -197 229 -57 62 -103 116 -103
120 0 3 10 4 23 0 12 -3 46 -6 75 -6z m472 -10 l104 0 -36 -37 c-44 -46 -108
-150 -108 -176 0 -10 -5 -17 -12 -15 -12 4 -89 99 -160 197 l-32 44 70 -6 c38
-4 116 -7 174 -7z m1155 -30 c182 -5 500 -12 709 -16 l378 -7 -6 -76 c-9 -92
-24 -160 -63 -271 l-30 -85 -74 1 c-41 1 -157 8 -259 17 -326 29 -684 40
-1076 34 l-371 -7 -31 39 c-20 25 -62 54 -122 85 -50 26 -94 54 -96 61 -9 23
15 57 109 153 l92 92 255 -5 c140 -3 404 -10 585 -15z m-2315 -373 l55 -47
-120 6 c-66 4 -123 8 -127 11 -5 2 -8 52 -8 110 l0 106 73 -69 c39 -38 97 -90
127 -117z m2520 -182 c96 -3 227 -10 290 -15 149 -13 414 -41 418 -45 12 -10
-200 -353 -281 -454 -34 -43 -37 -44 -94 -46 -32 -1 -107 -7 -168 -14 -73 -9
-158 -11 -251 -7 -95 4 -219 1 -375 -10 -131 -9 -359 -17 -519 -17 -314 0
-417 8 -795 68 -338 53 -467 72 -627 91 l-147 17 -32 76 c-55 132 -117 336
-106 348 3 2 99 0 213 -6 264 -14 596 -14 1034 0 859 27 984 28 1440 14z
m-1824 -689 c312 -49 442 -66 517 -66 l47 0 0 -210 c0 -134 -4 -210 -10 -210
-6 0 -182 14 -393 30 -210 17 -399 30 -419 28 -35 -2 -40 2 -86 62 -108 144
-292 427 -292 450 0 9 281 -28 636 -84z m2000 -119 c-76 -84 -311 -303 -423
-397 l-63 -52 -102 8 c-57 3 -111 10 -121 13 -15 6 5 31 110 142 70 74 172
185 227 246 l98 112 142 4 c77 1 156 4 174 5 l34 2 -76 -83z m-614 -74 c-250
-265 -264 -282 -260 -314 5 -32 0 -33 -80 -21 l-43 7 126 165 c69 91 147 195
173 232 51 72 51 73 171 76 l53 2 -140 -147z m-239 115 c-5 -7 -36 -47 -69
-88 -76 -94 -186 -249 -216 -301 -20 -36 -57 -57 -45 -25 18 45 78 244 98 323
l24 92 80 4 c44 1 93 4 109 5 21 1 26 -1 19 -10z m-373 -10 c0 -7 -11 -49 -25
-93 l-24 -80 0 93 c-1 92 -1 92 24 92 14 0 25 -6 25 -12z m-669 -518 c291 -23
1197 -99 1218 -103 23 -3 -415 -326 -725 -535 l-92 -61 -218 222 c-121 122
-266 276 -323 342 -138 157 -136 155 -124 155 5 0 124 -9 264 -20z m517 -1184
c158 -144 457 -407 565 -496 36 -30 66 -58 66 -62 1 -5 -47 -8 -106 -8 -214 0
-1346 -39 -1635 -56 -60 -4 -108 -4 -108 -1 0 8 305 235 475 354 151 106 588
403 593 403 2 0 70 -60 150 -134z m998 -875 c104 -93 254 -232 334 -309 l145
-141 -127 0 c-253 -2 -1182 -35 -1564 -57 l-111 -7 -7 184 c-4 111 -16 238
-30 321 l-22 137 80 5 c45 3 295 10 556 16 261 6 476 13 479 16 2 2 21 4 41 4
34 0 54 -15 226 -169z m-1558 112 c-34 -41 -165 -340 -213 -488 l-52 -160 -36
-3 c-20 -2 -37 -1 -37 1 0 17 144 353 212 494 79 164 84 172 112 173 27 0 28
-1 14 -17z m-274 -105 c-75 -150 -216 -489 -211 -508 3 -8 8 -22 12 -32 6 -14
-3 -17 -59 -20 -36 -1 -65 -1 -64 2 73 143 363 669 371 670 4 0 -18 -51 -49
-112z m-213 -30 c-118 -203 -241 -444 -241 -473 0 -15 4 -35 10 -45 9 -17 4
-19 -63 -25 -39 -4 -94 -5 -120 -3 l-49 3 106 154 c163 236 286 403 323 438
18 18 33 40 33 51 0 26 8 32 46 32 l33 0 -78 -132z m-171 108 c0 -2 -50 -64
-111 -137 -103 -125 -322 -432 -355 -498 -13 -27 -20 -30 -85 -36 -39 -4 -72
-6 -74 -4 -2 2 42 54 97 114 55 61 170 191 255 290 86 99 168 191 183 205 15
14 32 35 39 48 6 12 21 22 31 22 11 0 20 -2 20 -4z m-366 -150 c-47 -54 -334
-365 -388 -421 l-39 -40 38 50 c80 104 134 164 274 308 146 148 185 184 115
103z m1095 -292 l1 -161 -81 -7 c-44 -4 -83 -6 -85 -4 -7 7 66 219 109 318
l42 95 7 -40 c4 -22 7 -113 7 -201z m-1542 -214 c-6 -16 -15 -30 -19 -30 -12
0 -10 8 8 35 22 33 25 31 11 -5z m3724 -132 c111 -135 252 -348 319 -480 29
-59 52 -110 49 -112 -2 -3 -56 0 -119 6 -147 13 -769 4 -1115 -17 -601 -35
-1250 -86 -2370 -184 -536 -47 -823 -71 -851 -71 -9 0 -11 11 -9 33 3 17 10
73 16 122 23 179 83 370 172 548 l52 102 75 2 c215 6 672 28 1350 63 1023 54
1420 70 1915 79 231 4 423 8 426 9 4 1 44 -44 90 -100z m-358 -983 c70 -141
127 -257 127 -259 0 -2 -20 -6 -45 -8 -37 -3 -46 0 -51 15 -6 18 -124 209
-247 400 -31 48 -57 90 -57 92 0 4 50 9 115 13 31 2 32 0 158 -253z m278 38
c79 -119 157 -232 173 -250 l28 -33 -39 0 c-22 0 -68 -3 -102 -6 l-61 -7 0 27
c0 14 -49 126 -110 247 -60 121 -110 225 -110 230 0 5 17 9 38 9 l39 0 144
-217z m-704 145 c22 -35 97 -150 167 -257 69 -107 126 -198 126 -203 0 -4 -18
-8 -40 -8 -35 0 -40 3 -40 23 0 29 -151 232 -285 385 l-94 107 52 6 c29 3 57
6 63 7 6 1 28 -26 51 -60z m890 19 c22 -79 52 -151 101 -237 27 -47 63 -110
80 -142 l32 -56 -59 -4 c-56 -3 -59 -2 -44 14 30 34 18 74 -56 181 -39 56 -97
144 -130 195 l-60 92 62 0 63 0 11 -43z m-1227 7 c0 -9 51 -75 113 -148 132
-152 282 -345 274 -352 -2 -3 -37 -8 -76 -11 -65 -5 -71 -4 -71 13 0 28 -174
261 -289 389 -111 123 -111 121 2 124 37 1 47 -2 47 -15z m1531 6 c26 0 30 -5
48 -68 23 -77 61 -287 61 -338 0 -27 -4 -34 -20 -34 -11 0 -20 4 -20 10 0 5
-38 79 -85 163 -47 84 -96 182 -110 216 l-25 64 62 -7 c33 -3 74 -6 89 -6z
m-1851 -24 c0 -8 54 -77 121 -153 66 -76 156 -186 199 -245 73 -98 77 -106 57
-112 -39 -10 -67 -7 -67 9 0 17 -256 309 -369 420 l-82 80 43 6 c78 11 98 10
98 -5z m-585 -98 c-149 -164 -153 -269 -15 -412 l60 -63 -87 -7 c-541 -39
-1950 -112 -1961 -101 -15 14 -72 368 -72 442 0 13 31 17 260 33 250 18 1855
170 1878 179 2 0 -26 -32 -63 -71z m593 -283 c125 -140 125 -140 96 -146 -87
-19 -90 -18 -212 120 -65 73 -151 157 -202 197 -49 38 -89 71 -89 74 0 3 21
22 47 42 l47 37 94 -92 c51 -51 150 -155 219 -232z m-425 58 c51 -42 125 -108
165 -147 80 -78 79 -84 -12 -85 -45 -1 -54 4 -131 64 -136 106 -164 152 -133
220 6 14 13 25 15 25 3 0 46 -34 96 -77z m2377 -304 c0 -116 -72 -495 -99
-522 -4 -4 -99 -16 -212 -27 -641 -63 -1462 -165 -2207 -275 -165 -25 -239
-32 -252 -25 -30 16 -68 12 -90 -10 -27 -27 -461 -97 -497 -81 -35 16 -55 14
-93 -12 -28 -19 -94 -34 -330 -76 l-294 -52 -18 23 c-107 141 -365 666 -403
821 l-7 27 58 0 c124 0 837 36 1319 65 270 17 581 38 1410 95 599 41 1075 72
1460 94 127 7 236 14 243 15 8 1 12 -17 12 -60z m-160 -698 c0 -34 -245 -530
-265 -537 -5 -2 -208 -22 -450 -44 -242 -22 -578 -55 -747 -73 -170 -18 -308
-32 -308 -31 0 1 18 32 40 70 89 153 56 233 -142 344 -62 34 -79 50 -53 50 8
0 129 16 268 35 429 59 1060 134 1507 179 74 7 138 14 143 15 4 0 7 -3 7 -8z
m-2129 -306 c46 -24 76 -45 66 -45 -26 0 -77 -54 -77 -81 0 -12 -28 -86 -62
-165 -70 -159 -57 -147 -175 -159 l-62 -7 44 124 c72 203 141 361 162 369 10
4 19 8 19 8 1 1 40 -19 85 -44z m-301 1 c0 -2 -12 -30 -26 -62 -40 -88 -144
-375 -144 -395 0 -14 -11 -19 -47 -24 -27 -3 -75 -10 -108 -15 -33 -4 -62 -6
-64 -4 -6 6 24 78 118 285 l88 194 64 11 c67 12 119 17 119 10z m-370 -50 c0
-2 -26 -59 -59 -127 -32 -68 -73 -164 -90 -214 -46 -130 -49 -135 -68 -136
-10 0 -42 -4 -70 -8 -29 -4 -53 -5 -53 -2 0 3 50 110 110 236 l109 230 53 12
c64 13 68 14 68 9z m874 -67 c36 -23 66 -44 66 -48 0 -3 -9 -19 -21 -36 -11
-16 -35 -63 -54 -102 -37 -78 -76 -113 -128 -113 l-27 0 26 52 c55 108 90 238
74 269 -15 26 -10 25 64 -22z m-1255 -141 c-40 -84 -87 -187 -105 -228 l-33
-75 -63 -11 c-35 -6 -64 -10 -66 -8 -5 3 66 190 104 272 19 41 50 100 69 132
l35 58 63 9 c34 5 64 8 66 6 2 -1 -29 -71 -70 -155z m-269 98 c0 -2 -17 -41
-39 -87 -21 -46 -49 -112 -61 -146 -12 -35 -26 -63 -30 -63 -9 0 -221 233
-216 238 4 3 308 59 334 61 6 1 12 -1 12 -3z m3051 -263 c-39 -73 -366 -394
-616 -605 -195 -164 -903 -723 -932 -735 -12 -5 -242 164 -678 501 -378 291
-677 537 -659 543 46 14 2734 309 2852 312 38 1 42 -1 33 -16z m-1360 -1841
c264 -209 382 -307 563 -467 88 -77 173 -152 190 -167 l31 -27 -993 -3 c-545
-2 -992 -1 -992 2 0 9 300 255 550 452 397 311 455 357 460 357 3 0 88 -66
191 -147z m-390 -933 c-51 -101 -56 -116 -56 -178 0 -76 22 -120 82 -161 18
-13 32 -25 29 -27 -2 -2 -239 1 -527 6 -288 6 -634 11 -768 11 l-245 0 35 36
c18 20 126 124 239 230 l205 194 531 0 531 0 -56 -111z m837 -110 c122 -121
231 -234 243 -250 l20 -29 -80 0 c-80 0 -81 0 -81 25 0 29 -40 75 -66 75 -9 0
-33 12 -53 27 -45 33 -431 365 -431 369 0 2 51 4 113 4 l113 0 222 -221z m254
183 c14 -20 93 -107 174 -192 137 -145 244 -265 244 -276 0 -2 -44 -4 -98 -4
l-99 0 -132 155 c-73 85 -180 200 -238 255 l-106 100 114 0 114 0 27 -38z
m419 -130 c90 -93 199 -210 242 -260 l78 -92 -68 0 c-66 0 -69 1 -79 28 -19
49 -129 184 -273 335 -78 81 -141 150 -141 152 0 3 18 5 39 5 37 0 46 -7 202
-168z m-1248 69 c23 -21 110 -100 192 -175 83 -76 174 -154 202 -174 29 -21
53 -39 53 -42 0 -3 -73 -3 -162 0 -159 5 -163 6 -166 27 -5 33 -43 58 -118 77
-126 32 -183 77 -169 133 7 32 106 193 118 193 4 0 26 -17 50 -39z m-13 -541
c217 -5 609 -14 870 -20 261 -5 557 -13 657 -16 l183 -6 56 -75 c82 -109 205
-305 275 -437 68 -129 70 -123 -36 -106 -240 40 -743 84 -1255 110 -530 27
-1725 50 -2588 50 l-453 0 18 31 c31 52 159 219 276 358 l112 133 745 -6 c410
-3 923 -10 1140 -16z m-1995 -668 c-6 -5 -37 -29 -70 -53 -33 -25 -123 -94
-200 -155 -77 -60 -165 -126 -196 -146 -31 -21 -59 -44 -63 -53 -3 -10 -19
-15 -46 -15 -38 0 -41 2 -35 23 11 37 133 286 171 348 l35 59 207 0 c113 0
202 -4 197 -8z m580 -61 c-77 -37 -185 -97 -240 -133 -111 -72 -305 -224 -305
-239 0 -10 -117 -10 -254 0 l-88 6 178 131 c234 172 371 263 403 270 14 3 37
11 51 19 18 10 73 13 210 14 l185 0 -140 -68z m614 62 l122 -6 -123 -73 c-104
-61 -486 -351 -509 -387 -7 -10 -343 0 -401 12 l-33 7 85 60 c151 107 264 167
545 290 79 35 91 43 99 72 10 37 7 37 215 25z m680 -13 c98 0 112 -2 101 -14
-6 -8 -139 -115 -295 -236 -156 -122 -285 -230 -288 -240 -4 -15 -12 -18 -43
-14 -53 5 -374 24 -419 24 -20 0 -34 4 -31 9 20 31 303 227 478 330 113 67
209 129 212 138 6 13 19 15 89 10 45 -4 133 -7 196 -7z m991 -35 c546 -31
1094 -86 1286 -130 31 -7 93 -214 138 -464 l6 -33 -133 6 c-72 3 -213 8 -312
11 -262 9 -760 33 -1150 55 -455 27 -1098 69 -1101 73 -2 1 59 50 134 108 141
110 444 372 451 391 4 12 260 6 681 -17z"/>
</g>
</svg>
