<?xml version="1.0" standalone="no"?>
<!DOCTYPE svg PUBLIC "-//W3C//DTD SVG 20010904//EN"
 "http://www.w3.org/TR/2001/REC-SVG-20010904/DTD/svg10.dtd">
<svg version="1.0" xmlns="http://www.w3.org/2000/svg"
 width="764.000000pt" height="1280.000000pt" viewBox="0 0 764.000000 1280.000000"
 preserveAspectRatio="xMidYMid meet">
<metadata>
Created by potrace 1.15, written by Peter Selinger 2001-2017
</metadata>
<g transform="translate(0.000000,1280.000000) scale(0.100000,-0.100000)"
fill="#000000" stroke="none">
<path d="M1004 12778 c-12 -13 -119 -174 -239 -358 -119 -184 -220 -339 -224
-343 -5 -4 -71 33 -147 83 -81 53 -147 89 -159 88 -21 -3 -219 -291 -231 -336
-5 -16 -1 -30 12 -42 43 -42 2848 -1860 2870 -1860 12 0 30 10 38 21 l15 22
33 -21 c228 -139 312 -186 391 -216 197 -76 350 -95 755 -96 196 0 242 -3 242
-13 0 -32 35 -47 108 -47 l72 0 0 -2327 c0 -1482 4 -2377 10 -2463 67 -883
403 -2647 705 -3695 162 -562 315 -934 430 -1050 146 -145 407 -165 574 -45
217 157 508 1041 811 2459 144 676 287 1510 345 2011 46 395 45 338 45 2788
l0 2322 73 0 c109 0 107 -5 107 228 0 160 -3 193 -16 206 -14 14 -175 16
-1624 16 -1773 0 -1640 5 -1640 -61 l0 -29 -292 0 c-333 0 -434 11 -572 61
-108 39 -393 208 -387 230 3 8 5 28 5 44 1 28 -9 37 -136 120 -98 64 -136 94
-132 105 3 8 109 173 235 367 166 253 229 358 225 371 -7 21 -2225 1473 -2260
1479 -13 3 -29 -5 -42 -19z"/>
</g>
</svg>
